<?xml version="1.0" encoding="UTF-8" standalone="no"?>
<svg
   xmlns:dc="http://purl.org/dc/elements/1.1/"
   xmlns:cc="http://creativecommons.org/ns#"
   xmlns:rdf="http://www.w3.org/1999/02/22-rdf-syntax-ns#"
   xmlns:svg="http://www.w3.org/2000/svg"
   xmlns="http://www.w3.org/2000/svg"
   xmlns:sodipodi="http://sodipodi.sourceforge.net/DTD/sodipodi-0.dtd"
   xmlns:inkscape="http://www.inkscape.org/namespaces/inkscape"
   version="1.1"
   id="Capa_1"
   x="0px"
   y="0px"
   viewBox="0 0 241.171 241.171"
   style="enable-background:new 0 0 241.171 241.171;"
   xml:space="preserve"
   sodipodi:docname="Header__button-close.svg"
   inkscape:version="1.0.1 (3bc2e813f5, 2020-09-07)"><metadata
   id="metadata945"><rdf:RDF><cc:Work
       rdf:about=""><dc:format>image/svg+xml</dc:format><dc:type
         rdf:resource="http://purl.org/dc/dcmitype/StillImage" /></cc:Work></rdf:RDF></metadata><defs
   id="defs943" /><sodipodi:namedview
   pagecolor="#ffffff"
   bordercolor="#666666"
   borderopacity="1"
   objecttolerance="10"
   gridtolerance="10"
   guidetolerance="10"
   inkscape:pageopacity="0"
   inkscape:pageshadow="2"
   inkscape:window-width="1920"
   inkscape:window-height="986"
   id="namedview941"
   showgrid="false"
   inkscape:zoom="0.8292871"
   inkscape:cx="331.17807"
   inkscape:cy="192.02249"
   inkscape:window-x="-11"
   inkscape:window-y="265"
   inkscape:window-maximized="1"
   inkscape:current-layer="Capa_1" />
<g
   id="g908"
   style="fill:#ffffff">
	<path
   id="Close"
   d="M138.138,120.754l99.118-98.576c4.752-4.704,4.752-12.319,0-17.011c-4.74-4.704-12.439-4.704-17.179,0   l-99.033,98.492L21.095,3.699c-4.74-4.752-12.439-4.752-17.179,0c-4.74,4.764-4.74,12.475,0,17.227l99.876,99.888L3.555,220.497   c-4.74,4.704-4.74,12.319,0,17.011c4.74,4.704,12.439,4.704,17.179,0l100.152-99.599l99.551,99.563   c4.74,4.752,12.439,4.752,17.179,0c4.74-4.764,4.74-12.475,0-17.227L138.138,120.754z"
   style="fill:#ffffff" />
	<g
   id="g896"
   style="fill:#ffffff">
	</g>
	<g
   id="g898"
   style="fill:#ffffff">
	</g>
	<g
   id="g900"
   style="fill:#ffffff">
	</g>
	<g
   id="g902"
   style="fill:#ffffff">
	</g>
	<g
   id="g904"
   style="fill:#ffffff">
	</g>
	<g
   id="g906"
   style="fill:#ffffff">
	</g>
</g>
<g
   id="g910">
</g>
<g
   id="g912">
</g>
<g
   id="g914">
</g>
<g
   id="g916">
</g>
<g
   id="g918">
</g>
<g
   id="g920">
</g>
<g
   id="g922">
</g>
<g
   id="g924">
</g>
<g
   id="g926">
</g>
<g
   id="g928">
</g>
<g
   id="g930">
</g>
<g
   id="g932">
</g>
<g
   id="g934">
</g>
<g
   id="g936">
</g>
<g
   id="g938">
</g>
</svg>
